<?xml version="1.0" standalone="no"?>
<!DOCTYPE svg PUBLIC "-//W3C//DTD SVG 20010904//EN"
 "http://www.w3.org/TR/2001/REC-SVG-20010904/DTD/svg10.dtd">
<svg version="1.0" xmlns="http://www.w3.org/2000/svg"
 width="460.000000pt" height="460.000000pt" viewBox="0 0 460.000000 460.000000"
 preserveAspectRatio="xMidYMid meet">
<metadata>
Created by potrace 1.11, written by Peter Selinger 2001-2013
</metadata>
<g transform="translate(0.000000,460.000000) scale(0.100000,-0.100000)"
fill="#000000" stroke="none">
<path d="M1770 4440 l0 -60 -180 0 -180 0 0 -60 0 -60 -115 0 -115 0 0 -55 0
-55 -60 0 -60 0 0 -60 0 -60 -60 0 -60 0 0 -60 0 -60 -60 0 -60 0 0 -120 0
-120 -55 0 -55 0 0 -175 0 -175 -60 0 -60 0 0 -1185 0 -1185 60 0 60 0 0 -410
0 -410 55 0 55 0 0 -58 0 -59 182 -6 c235 -9 2567 -9 2686 -1 l92 7 0 58 0 59
60 0 60 0 0 235 0 235 60 0 60 0 0 235 0 235 55 0 55 0 0 120 0 120 65 0 65 0
0 235 0 235 -65 0 -65 0 0 180 0 180 -55 0 -55 0 0 55 0 55 -60 0 -60 0 0 180
0 180 60 0 60 0 0 120 0 120 -60 0 -60 0 0 55 0 55 60 0 60 0 0 60 0 60 55 0
55 0 0 180 0 180 -55 0 -55 0 0 55 0 55 -60 0 -60 0 0 60 0 60 -60 0 -60 0 0
120 0 120 -60 0 -60 0 0 60 0 60 -60 0 -60 0 0 60 0 60 -60 0 -60 0 0 55 0 55
-115 0 -115 0 0 60 0 60 -120 0 -120 0 0 60 0 60 -590 0 -590 0 0 -60z"/>
</g>
</svg>
